# xmcd
# 
# Track frame offsets:
#     150
#     11217
#     29667
#     42020
#     53787
#     64230
#     77302
#     92397
#     101970
#     116757
#     127195
# 
# Disc length: 1954
# 
# Revision: 0
# Processed by: cddbd v1.5.2PL0 Copyright (c) Steve Scherf et al.
# Submitted via: BonkEnc v1.0.8
# 
DISCID=9107a00b
DTITLE=Aretha Franklin - I Never Loved A Man The Way I Love You
DYEAR=1967
DGENRE=R&B
TTITLE0=Respect
TTITLE1=Drown In My Own Tears
TTITLE2=I Never Loved A Man (The Way I Love You)
TTITLE3=Soul Serenade
TTITLE4=Don't Let Me Lose This Dream
TTITLE5=Baby, Baby, Baby
TTITLE6=Dr Feelgood (Love Is A Serious Business)
TTITLE7=Good Times
TTITLE8=Do Right Woman - Do Right Man
TTITLE9=Save Me
TTITLE10=A Change Is Gonna Come
EXTD=
EXTT0=
EXTT1=
EXTT2=
EXTT3=
EXTT4=
EXTT5=
EXTT6=
EXTT7=
EXTT8=
EXTT9=
EXTT10=
PLAYORDER=
